<?xml version="1.0" encoding="UTF-8" standalone="no"?>
<!-- Created with Inkscape (http://www.inkscape.org/) -->

<svg
   xmlns:dc="http://purl.org/dc/elements/1.1/"
   xmlns:cc="http://creativecommons.org/ns#"
   xmlns:rdf="http://www.w3.org/1999/02/22-rdf-syntax-ns#"
   xmlns:svg="http://www.w3.org/2000/svg"
   xmlns="http://www.w3.org/2000/svg"
   xmlns:sodipodi="http://sodipodi.sourceforge.net/DTD/sodipodi-0.dtd"
   xmlns:inkscape="http://www.inkscape.org/namespaces/inkscape"
   width="64"
   height="64"
   viewBox="0 0 64 64"
   id="svg2"
   version="1.1"
   inkscape:version="0.92.5 (2060ec1f9f, 2020-04-08)"
   inkscape:export-filename="/home/djrm/Projects/godot/tools/editor/icons/icon_center_container.png"
   inkscape:export-xdpi="90"
   inkscape:export-ydpi="90"
   sodipodi:docname="icon.svg">
  <defs
     id="defs4" />
  <sodipodi:namedview
     id="base"
     pagecolor="#ffffff"
     bordercolor="#666666"
     borderopacity="1.0"
     inkscape:pageopacity="0.0"
     inkscape:pageshadow="2"
     inkscape:zoom="8"
     inkscape:cx="21.316168"
     inkscape:cy="21.358705"
     inkscape:document-units="px"
     inkscape:current-layer="layer1"
     showgrid="true"
     units="px"
     inkscape:snap-bbox="true"
     inkscape:bbox-paths="true"
     inkscape:bbox-nodes="true"
     inkscape:snap-bbox-edge-midpoints="true"
     inkscape:snap-bbox-midpoints="true"
     inkscape:snap-object-midpoints="true"
     inkscape:snap-center="true"
     inkscape:window-width="1920"
     inkscape:window-height="1200"
     inkscape:window-x="0"
     inkscape:window-y="0"
     inkscape:window-maximized="1">
    <inkscape:grid
       type="xygrid"
       id="grid3336" />
  </sodipodi:namedview>
  <metadata
     id="metadata7">
    <rdf:RDF>
      <cc:Work
         rdf:about="">
        <dc:format>image/svg+xml</dc:format>
        <dc:type
           rdf:resource="http://purl.org/dc/dcmitype/StillImage" />
        <dc:title></dc:title>
      </cc:Work>
    </rdf:RDF>
  </metadata>
  <g
     inkscape:label="Layer 1"
     inkscape:groupmode="layer"
     id="layer1"
     transform="translate(0,-988.3622)">
    <path
       style="opacity:1;fill:#a5b7f3;fill-opacity:0.98823529;stroke:none;stroke-width:7.78538132;stroke-linecap:round;stroke-linejoin:miter;stroke-miterlimit:4;stroke-dasharray:none;stroke-dashoffset:0;stroke-opacity:1"
       d="M 12.714286,992.3622 C 8.453803,992.3622 5,995.87984 5,1000.2193 h 7.714286 z m 7.714284,0 v 7.8571 h 7.714287 v -7.8571 z m 15.428574,0 v 7.8571 h 7.714286 v -7.8571 z m 15.42857,0 v 7.8571 H 59 c 0,-4.33946 -3.453805,-7.8571 -7.714286,-7.8571 z M 5,1008.0764 v 7.8573 h 7.714286 v -7.8573 z m 46.285714,0 v 7.8573 H 59 v -7.8573 z M 5,1023.7908 v 7.8572 h 7.714286 v -7.8572 z m 46.285714,0 v 7.8572 H 59 v -7.8572 z M 5,1039.505 c 0,4.3395 3.453803,7.8572 7.714286,7.8572 v -7.8572 z m 15.42857,0 v 7.8572 h 7.714286 v -7.8572 z m 15.428573,0 v 7.8572 h 7.714287 v -7.8572 z m 15.428571,0 v 7.8572 c 4.260481,0 7.714286,-3.5178 7.714286,-7.8572 z"
       id="rect4140"
       inkscape:connector-curvature="0" />
  </g>
</svg>
